<?xml version="1.0" standalone="no"?>
<!DOCTYPE svg PUBLIC "-//W3C//DTD SVG 20010904//EN"
 "http://www.w3.org/TR/2001/REC-SVG-20010904/DTD/svg10.dtd">
<svg version="1.0" xmlns="http://www.w3.org/2000/svg"
 width="35.000000pt" height="35.000000pt" viewBox="0 0 1200.000000 1200.000000"
 preserveAspectRatio="xMidYMid meet">
   <defs>
    <linearGradient id="grad1" x1="0%" y1="40%" x2="40%" y2="0%">
      <stop offset="0%" style="stop-color:#f18121;stop-opacity:1" />
      <stop offset="100%" style="stop-color:#f3b98a;stop-opacity:1" />
    </linearGradient>
  </defs>

<g transform="translate(0.000000,1200.000000) scale(0.100000,-0.100000)"
fill="url('#grad1')" stroke="none">


<path d="M5660 11490 c-1140 -79 -2208 -489 -3077 -1182 -193 -154 -463 -398
-463 -419 0 -6 531 -541 663 -668 l36 -33 133 120 c320 292 665 530 1029 713
907 454 1942 589 2940 384 793 -164 1524 -541 2136 -1104 358 -328 719 -799
921 -1197 l21 -42 -47 15 c-194 59 -384 85 -617 85 -350 1 -639 -65 -950 -217
-217 -105 -392 -229 -569 -403 -332 -326 -535 -715 -622 -1197 -26 -141 -26
-547 -1 -685 74 -403 226 -741 465 -1032 73 -89 234 -248 322 -319 298 -238
666 -397 1055 -455 149 -22 452 -22 600 0 862 131 1543 727 1784 1561 62 217
86 440 78 730 -42 1402 -589 2697 -1557 3689 -459 470 -939 818 -1525 1106
-595 293 -1213 467 -1895 535 -184 18 -684 27 -860 15z m3895 -4345 c379 -72
714 -346 855 -700 18 -43 43 -121 57 -174 23 -85 26 -116 26 -271 0 -157 -2
-185 -25 -271 -98 -364 -315 -630 -642 -785 -238 -113 -523 -140 -780 -74
-443 113 -782 479 -861 929 -19 107 -19 295 0 403 54 311 241 594 509 773 163
108 297 154 551 189 50 7 233 -4 310 -19z"/>
<path d="M2500 8160 c-825 -65 -1543 -596 -1848 -1365 -116 -292 -160 -570
-149 -940 24 -796 204 -1540 541 -2240 274 -567 614 -1045 1070 -1501 292
-291 532 -488 866 -709 1147 -759 2540 -1054 3920 -830 1079 176 2112 692
2898 1449 l93 90 -38 39 c-21 21 -181 178 -355 349 l-317 310 -117 -107 c-223
-203 -444 -373 -674 -517 -1048 -654 -2310 -851 -3506 -547 -622 158 -1223
461 -1721 867 -454 371 -850 846 -1112 1334 l-52 96 48 -14 c83 -26 204 -52
318 -69 134 -21 429 -24 565 -6 621 81 1166 412 1522 926 425 614 498 1416
191 2110 -204 461 -577 845 -1038 1066 -340 164 -734 238 -1105 209z m286
-1001 c260 -29 485 -131 670 -302 387 -361 486 -921 246 -1390 -151 -297 -424
-514 -747 -597 -561 -143 -1152 155 -1368 691 -62 153 -80 253 -81 434 -1 168
7 223 51 360 55 176 152 334 283 465 148 147 329 254 522 305 157 42 273 51
424 34z"/>
</g>
</svg>
